<svg width="392" height="94" viewBox="0 0 392 94" fill="none" xmlns="http://www.w3.org/2000/svg">
<path d="M0 15.8721C1.34137 21.9083 18.0124 23.1765 35.5 24.5573M205.678 90.9848C190.678 71.9848 106.108 78.3316 110.679 67.9848C115.451 57.1809 144.348 59.6335 148.179 46.608C150.032 40.3069 143.711 36.9394 134 34.8967M35.5 24.5573C45.0429 25.3108 126.329 33.283 134 34.8967M35.5 24.5573L134 34.8967" stroke="#AE1F4D" stroke-width="5" stroke-linecap="round"/>
<path d="M388.999 7.05717C357.499 -1.94285 318.676 5.5841 313.499 14.5572C305.999 27.5573 323.499 36.5573 311.333 44.5573C308.969 46.1113 300.333 47.5573 294.333 47.5573C289.333 47.5573 283.833 47.5573 276.333 46.5573C268.833 45.5573 272.133 42.307 270.833 39.0573C269.833 36.5573 267.833 35.0573 263.333 35.0573" stroke="#AE1F4D" stroke-width="5" stroke-linecap="round"/>
<path d="M267.119 35.3708C254.286 30.5375 216.659 37.8007 236.119 46.3708C255.678 54.9844 221.678 61.4844 236.119 69.4843C248.178 80.9844 166.678 81.9844 171.178 89.9844" stroke="#AE1F4D" stroke-width="5" stroke-linecap="round"/>
<path d="M188.827 76.0525C188.998 76.7035 189.167 77.3288 189.334 77.9157C181.928 76.0837 176.871 70.3182 175.124 64.7936C174.097 61.5479 174.335 58.7927 175.407 57.0555C176.342 55.5389 178.271 54.2371 182.109 54.4521C182.156 54.5067 182.214 54.5807 182.285 54.6791C182.653 55.1946 183.091 56.0412 183.575 57.2389C184.533 59.6115 185.468 62.8485 186.364 66.283C186.808 67.987 187.236 69.7109 187.647 71.3724L187.675 71.4836C188.075 73.0986 188.461 74.6582 188.827 76.0525ZM181.976 54.3164C181.976 54.3158 181.982 54.32 181.994 54.3307C181.982 54.3223 181.976 54.3169 181.976 54.3164ZM196.573 77.4722C197.233 75.0519 198.16 72.156 199.281 69.5007C200.216 67.2863 201.229 65.3784 202.248 64.0666C203.352 62.6463 204.019 62.485 204.177 62.485C204.835 62.485 205.932 62.8379 207.286 63.7523C208.586 64.6297 209.872 65.8572 210.87 67.179C211.892 68.5325 212.465 69.7877 212.605 70.7001C212.725 71.4867 212.526 71.7392 212.244 71.9368C210.138 73.4111 206.103 74.8162 201.923 76.0193C200.164 76.5252 198.465 76.9733 196.977 77.3656C196.84 77.4016 196.706 77.4371 196.573 77.4722Z" stroke="#AE1F4D" stroke-width="5" stroke-linejoin="round"/>
</svg>
